<svg version="1.1" id="Layer_1" xmlns="http://www.w3.org/2000/svg" x="0" y="0" viewBox="0 0 74 19" xml:space="preserve"><style>.st0{fill:#FFFFFF}</style><path class="st0" d="M8.1 11.9l.7-4.4H12l-1 6.7c-1.5.4-3.1.7-4.8.7-2 0-3.5-.5-4.6-1.5S0 10.9 0 8.9c0-2.6.8-4.7 2.3-6.4S5.9 0 8.6 0c.8 0 1.7 0 2.5.1s1.4.2 1.6.3l-.7 3c-1-.3-2.1-.5-3.4-.5-1.6 0-2.9.5-3.8 1.5S3.4 6.7 3.4 8.5c0 2.3 1.2 3.5 3.5 3.5.3 0 .7-.1 1.2-.1zM13.1 14.6l1.7-10.7h2.5l-.1 2.6c1.1-1.9 2.5-2.8 4.1-2.8h.2l-.6 3.2c-.7 0-1.4.2-2.1.6s-1.2.9-1.7 1.6l-.9 5.5h-3.1zM26.1 14.8c-1.5 0-2.6-.4-3.4-1.2s-1.2-1.8-1.2-3.2c0-2 .6-3.6 1.7-4.9s2.7-1.9 4.6-1.9c1.5 0 2.7.4 3.5 1.1.8.8 1.3 1.8 1.3 3.2 0 2.1-.6 3.7-1.7 5s-2.7 1.9-4.8 1.9zm.4-2.6c.9 0 1.6-.3 2.1-1s.8-1.6.8-2.8c0-1.4-.6-2.1-1.8-2.1-.9 0-1.6.3-2.1 1s-.8 1.6-.8 2.8c0 .7.2 1.2.5 1.6.2.3.7.5 1.3.5zM41.9 11.8l-.3 2.7c-1 .2-2.1.3-3.1.3-1.6 0-2.8-.4-3.6-1.2s-1.2-1.9-1.2-3.3c0-2 .6-3.6 1.8-4.9 1.2-1.2 2.7-1.8 4.7-1.8 1 0 2.1.1 3.2.4l-.6 2.7c-1-.3-1.8-.4-2.5-.4-1 0-1.8.3-2.4.9-.6.6-1 1.4-1 2.6 0 1.5.8 2.3 2.3 2.3.9 0 1.8-.1 2.7-.3zM54.1 6.9c-.1 2.5-2 3.7-5.6 3.7-.5 0-1 0-1.5-.1.1.6.3 1.1.7 1.3.4.3 1 .4 1.9.4 1.1 0 2.2-.2 3.3-.6l-.5 2.6c-1.1.4-2.4.5-3.7.5-1.8 0-3.1-.4-3.9-1.2-.8-.8-1.2-1.9-1.2-3.4 0-1.9.6-3.4 1.7-4.7 1.1-1.3 2.6-1.9 4.5-1.9 1.4 0 2.5.3 3.2.9.7.7 1.1 1.5 1.1 2.5zm-7 1.7h.7c2.1 0 3.1-.5 3.1-1.4 0-.3-.1-.6-.3-.8-.2-.2-.5-.3-.9-.3-.7 0-1.2.2-1.6.7-.5.4-.8 1-1 1.8zM55 14.6l1.7-10.7h2.5L59 6.5c1.1-1.9 2.5-2.8 4.1-2.8h.2l-.6 3.2c-.7 0-1.4.2-2.1.6-.6.5-1.2 1-1.6 1.6l-.9 5.5H55zM61.5 18.7l.5-2.5c.4.2.8.3 1.4.3.5 0 1-.2 1.4-.5.4-.3.7-.8 1-1.4L63.7 3.9h3.4l.6 5.6.1 2.4c.6-1.2 1.3-2.6 2-4.3s1-2.9 1-3.6H74c0 .8-.4 2-1.2 3.7-.8 1.7-1.5 3.1-2.2 4.2-.6 1.1-1.2 2-1.7 2.8-.3.4-.5.8-.6.9-.1.2-.3.4-.6.8s-.5.7-.7.8-.4.4-.7.7c-.3.3-.6.5-.9.6l-.9.3c-.2.1-.5.2-.9.2-.7 0-1.3-.1-2.1-.3z"/></svg>
